<?xml version="1.0" encoding="UTF-8"?>
<svg enable-background="new 0 0 2013 2013" version="1.1" viewBox="0 0 2013 2013" xml:space="preserve" xmlns="http://www.w3.org/2000/svg">
<path d="m1272 2014h-1271v-2013h2013v2013h-742m-582.25-582.44c-11.653 3.4062-23.21 7.0811-35.701 5.2623-8.8906-1.2943-17.874-1.9447-26.81-2.9314-9.7344-1.0746-19.026-2.6381-27.759-8.252-6.5181-4.1903-14.657-6.1938-22.339-8.1095-4.4405-1.1073-10.167-1.6737-14.011 0.19653-23.593 11.479-48.75 17.332-74.502 18.762-29.309 1.6274-55.226-10.201-79.31-25.987-3.0957-2.0293-5.9312-4.9202-7.9763-8.014-16.525-24.999-33.284-49.863-49.082-75.319-16.401-26.428-31.84-53.455-47.598-80.279-1.5259-2.5974-2.3343-5.6163-3.777-9.1851 1.6531 0.35974 2.3607 0.32398 2.825 0.64282 9.3338 6.4082 19.902 9.2411 30.961 10.17 31.159 2.6179 43.658-3.4246 56.717-26.858 4.2394-7.6073 0.19131-18.554-8.0495-21.367-21.712-7.411-43.391-14.927-65.205-22.027-21.751-7.0793-37.57-20.899-48.092-40.977-9.5807-18.281-14.133-37.99-15.644-58.411-1.0773-14.56 7.1251-22.864 21.846-22.873 0.99847-4.88e-4 2.0019 0.011597 2.9948 0.10535 11.762 1.1104 23.511 2.3727 35.285 3.3302 19.91 1.619 39.84 2.9929 59.752 4.6002 4.327 0.34936 6.2398-0.86145 5.5788-5.5424-2.0136-14.257-6.8476-27.292-15.259-39.106-7.6566-10.754-17.931-16.815-30.838-18.092-22.363-2.2141-44.75-4.2237-67.159-5.9095-17.22-1.2956-27.383-9.2192-31.558-25.967-3.0647-12.291-2.8479-24.824-1.1282-37.217 2.2399-16.142 11.443-24.942 27.489-26.833 27.277-3.214 54.572-6.2935 81.885-9.1898 7.9146-0.8393 15.946-1.4734 23.869-1.0844 7.9373 0.38971 12.331 6.1028 12.229 13.664-0.18097 13.464-0.28485 26.929-0.37018 40.395-0.052216 8.2421-0.009644 16.485-0.009644 25.603 3.1564-1.1151 5.1648-1.4719 6.7935-2.4567 11.645-7.0408 23.298-14.078 34.749-21.427 3.0051-1.9288 5.8348-4.5909 7.8459-7.5313 10.378-15.174 9.769-31.074 1.5989-46.793-8.6682-16.678-18.043-32.987-26.942-49.547-2.0259-3.7698-3.6512-7.8168-4.9603-11.897-2.5533-7.9576-4.7528-16.029-7.0988-24.053-0.58578-0.063294-1.1715-0.12659-1.7573-0.18994-1.0291 2.9839-2.3785 5.8995-3.0326 8.9635-3.1059 14.551-15.383 25.21-30.204 26.105-7.6431 0.46198-15.281 1.0345-22.912 1.6613-24.88 2.0435-49.732 4.5187-74.644 6.0126-9.5395 0.57208-15.039-2.7652-13.306-14.095 0.27576-1.8025 0.39145-3.6407 0.43459-5.4659 0.4816-20.375 2.4646-40.51 9.4274-59.862 8.0169-22.282 20.38-41.212 41.928-52.577 7.0163-3.7006 14.548-6.5256 22.039-9.2031 15.478-5.5317 30.885-11.432 46.707-15.772 12.167-3.3367 24.904-4.7517 37.186 1.0158 1.1222 0.52704 3.3543-0.072632 4.4294-0.94232 2.1688-1.7546 4.1876-3.8564 5.7582-6.1625 10.587-15.544 21.567-30.856 31.42-46.858 16.809-27.3 30.648-55.935 37.92-87.52 3.6608-15.901 9.6445-31.16 18.744-44.931 12.782-19.344 26.701-22.236 46.154-9.5063 17.792 11.643 25.995 29.377 28.427 49.45 1.7215 14.208 6.2649 26.646 14.278 38.211 6.6577 9.6088 14.195 15.263 26.883 10.666 8.3192-3.0143 17.357-4.0443 26.306-6.0142-8.5751-27.011-16.974-53.468-25.767-81.165 32.671 14.63 59.483 34.896 83.611 58.903 24.128 24.007 43.954 51.307 60.815 81.841 6.7383-15.513 11.975-30.334 14.413-46.071 2.0997-13.551 1.7667-26.528-7.1595-38.03-2.1417-2.7596-3.5981-6.0509-5.3698-9.0977 9.4807 4.5162 18.01 9.9271 26.776 14.922 17.324 9.8719 34.457 20.159 52.271 29.068 17.523 8.7637 35.322 3.6907 53.285-1.4294-0.91156-1.1528-1.3486-1.8749-1.9417-2.4307-18.578-17.41-36.111-36.131-55.942-51.976-95.35-76.184-204.24-113.01-326.48-109.76-37.284 0.98843-74.043 5.902-109.92 15.943-151.54 42.412-260.54 135.88-328.46 277.1-36.044 74.941-51.133 154.71-48.531 237.87 1.1555 36.92 5.8948 73.309 14.867 109.11 25.996 103.72 78.408 191.76 158.47 262.7 86.924 77.018 188.81 118.81 304.81 125.18 59.574 3.2697 117.91-4.6835 174.87-22.676 6.6091-2.0875 11.083-5.4631 13.829-12.083-0.006409-0.22742-0.012879-0.45496-0.019288-0.68237-0.36322 0.067383-0.72644 0.13464-1.8586 0.30347m-96.031-297.74c1.4982 0.034302 2.9965 0.063232 4.4946 0.10376 29.341 0.79236 58.221-1.9291 86.026-11.97 35.814-12.933 63.651-35.065 79.175-70.654 11.701-26.826 13.926-54.943 9.6802-83.675-3.9843-26.963-16.427-49.265-37.352-66.814-17.194-14.42-36.832-24.668-57.924-31.576-26.036-8.5275-52.576-15.51-78.85-23.321-16.234-4.8259-32.566-9.4525-47.12-18.596-13.732-8.6267-17.902-22.228-14.027-38.291 3.1735-13.154 13.382-19.895 25.36-23.9 21.315-7.1263 42.757-4.9697 64.002 0.48169 28.421 7.2926 53.547 21.493 77.608 37.813 1.1763 0.79791 2.4248 1.4893 3.8063 2.3319 18.055-26.187 35.891-52.059 53.869-78.134-15.666-13.018-32.434-23.724-50.41-32.548-30.702-15.071-63.26-23.328-97.279-25.777-30.817-2.2192-61.23-0.19159-90.49 10.765-37.034 13.868-65.395 37.409-80.891 74.53-11.593 27.772-12.353 56.637-6.628 85.826 5.4467 27.769 20.071 49.644 43.154 65.937 16.326 11.524 34.312 19.778 53.284 25.58 25.569 7.8194 51.456 14.592 77.112 22.135 16.258 4.7803 32.273 10.168 46.855 19.271 20.81 12.991 18.468 44.376 1.1104 55.752-5.6148 3.6796-11.866 6.9083-18.284 8.7489-22.834 6.5492-45.843 4.6685-68.66-0.43237-32.344-7.2303-60.229-23.42-86.057-43.593-3.0868-2.411-6.1757-4.8193-9.392-7.3291-20.683 24.791-41.01 49.156-61.4 73.595 20.362 18.387 42.352 33.223 66.448 44.942 35.322 17.179 72.683 26.432 112.78 28.795m425.73-78.77c11.371 13.606 24.034 25.868 38.342 36.359 57.66 42.275 122.47 52.36 191.63 42.066 42.831-6.3749 80.116-24.801 112.4-53.432 9.2864-8.2361 18.036-17.077 27.448-26.036-23.227-22.668-45.699-44.6-68.236-66.594-4.573 3.96-9.5984 8.3254-14.638 12.674-30.741 26.524-65.587 41.925-107.02 40.118-44.272-1.9305-78.748-21.51-101.89-58.881-25.85-41.741-29.206-86.894-13.383-132.92 13.952-40.587 41.64-68.584 83.204-80.914 37.152-11.021 73.068-5.6875 106.36 13.584 16.017 9.2727 30.584 21.049 46.238 31.992 21.178-24.415 43.275-49.888 65.329-75.312-18.469-21.183-52.919-44.565-82.948-55.741-47.817-17.796-97.058-21.065-146.94-11.89-55.917 10.284-102.48 37.378-138.2 81.862-35.579 44.315-51.371 95.596-50.933 152.08 0.43536 56.124 17.175 106.62 53.247 150.99m-197.45-290.55v372.36h108.22v-457.57h-108.22v85.208m1024.9 590.67c0.084228-1.8239 0.24048-3.6478 0.24158-5.4717 0.016113-25.16 0.010864-50.32 0.010864-75.481 0-1.5798 1.22e-4 -3.1597 1.22e-4 -6.0193 2.0703 2.5348 3.3306 3.9894 4.4952 5.517 20.088 26.347 40.149 52.715 60.292 79.02 0.99951 1.3051 2.6641 2.9108 4.0695 2.9611 7.9564 0.28479 15.928 0.13782 24.19 0.13782v-138.52h-30.474v84.071c-1.0702-1.3342-1.594-1.9585-2.0872-2.6061-19.971-26.227-39.922-52.468-59.954-78.649-1.0006-1.3079-2.6583-2.9398-4.0548-2.9833-8.766-0.27295-17.545-0.13806-26.282-0.13806v138.75c9.8408 0 19.32 0 29.552-0.5813m-608.81-4.7002c1.7845 1.7878 3.5046 5.0404 5.3645 5.1224 11.055 0.48718 22.142 0.24084 34.262 0.24084-11.585-16.971-22.605-33.114-33.635-49.273 20.894-10.967 27.668-20.332 29.321-40.396 1.788-21.701-9.5885-39.611-29.837-45.823-6.4321-1.9735-13.362-3.0624-20.091-3.1937-20.647-0.40381-41.307-0.15161-61.962-0.13586-1.2566 9.77e-4 -2.5133 0.16284-3.7649 0.24951v138.31h30.442v-44.052c6.4069 0 12.373 0.22498 18.312-0.079712 3.8928-0.19971 6.3112 0.95129 8.4968 4.3657 7.3523 11.485 15.1 22.718 23.092 34.664m-97.329-77.601c-1.9514-10.088-5.5359-19.539-11.618-27.859-16.824-23.016-40.016-31.743-67.866-30.152-42.694 2.4399-74.522 43.261-65.92 85.147 5.9337 28.892 23.342 48.1 51.818 55.416 29.373 7.5457 55.978 1.2867 76.925-21.804 15.403-16.98 20.003-37.453 16.66-60.746m-523.16 80.091c14.015 5.4491 28.429 6.3607 43.198 4.0461 38.878-6.0931 65.708-44.518 58.744-83.229-6.8428-38.038-40.986-64-83.704-58.476-33.709 4.3591-58.134 29.118-62.612 62.419-4.2944 31.937 13.004 61.659 44.374 75.24m1163.4-113.5c-27.241-32.035-81.054-33.564-110.23-3.2041-21.282 22.143-26.229 48.873-15.188 77.191 11.13 28.546 33.862 43.033 64.106 44.493 31.301 1.511 56.325-10.739 70.525-39.344 13.631-27.459 10.212-54.183-9.2091-79.136m-1028.6 116.38h18.075v-44.32c6.9805 0 13.289 0.13574 19.587-0.059692 2.9729-0.092164 4.7856 0.80469 6.4748 3.3962 8.2632 12.678 16.749 25.211 25.239 37.739 0.86108 1.2706 2.2595 3.0677 3.4407 3.0925 11.217 0.2356 22.442 0.14026 34.699 0.14026-11.615-17.031-22.597-33.134-33.608-49.28 20.022-10.336 26.93-19.48 29.169-38.265 2.8181-23.64-9.6408-42.667-32.416-48.776-5.7206-1.5345-11.798-2.3134-17.726-2.3969-20.317-0.28662-40.64-0.11438-60.961-0.10071-1.4506 0.001099-2.9011 0.13501-4.274 0.20337v138.63h12.3m573.46 0.001343c1.3618-1.0886 3.3564-1.8978 3.9806-3.312 3.4861-7.8981 6.7592-15.897 9.8422-23.962 1.027-2.6866 2.2371-3.8361 5.3113-3.8057 16.996 0.16846 33.995 0.14514 50.991 0.015136 2.7426-0.020996 4.0933 0.74133 5.0981 3.3788 3.1333 8.2252 6.5186 16.358 9.9863 24.449 0.5492 1.2816 2.0082 3.0645 3.0834 3.0905 9.8789 0.23853 19.766 0.14062 29.667 0.14062 0-1.0157 0.10217-1.3829-0.014404-1.6573-19.227-45.25-38.449-90.503-57.821-135.69-0.50989-1.1893-2.639-2.3237-4.0543-2.3766-6.6564-0.2489-13.336 0.097656-19.989-0.1919-3.7953-0.16528-5.7166 0.79797-7.3275 4.6383-15.743 37.526-31.783 74.926-47.725 112.37-3.1631 7.4293-6.2662 14.884-9.6449 22.916 9.7965 0 18.756 0 28.617-4.88e-4m-356.74-128.63c-9.8166-7.0394-20.935-10.067-32.841-10.169-18.497-0.15869-36.996-0.047974-55.494-0.028199-1.2603 0.001343-2.5203 0.19727-3.6193 0.28931v138.11h30.713v-41.242c6.4561 0 12.595 0.27466 18.698-0.068969 7.7799-0.43811 15.748-0.47498 23.253-2.2775 18.326-4.4022 31.696-15.136 35.733-34.237 4.0771-19.291 0.42041-36.79-16.442-50.377m601.93 108.48c1.7072-1.3868 2.0468-2.6558 0.2113-4.3975-6.0212-5.7136-11.916-11.561-17.854-17.353-24.783 23.803-52.13 17.334-64.594 3.736-14.707-16.044-15.862-43.353-2.0194-60.174 6.5215-7.9244 14.806-12.878 24.981-14.195 16.099-2.0842 29.072 4.7814 40.832 15.381 6.6239-7.6469 13.002-15.01 19.558-22.578-1.6033-1.5182-2.8717-2.8142-4.2374-3.998-18.925-16.405-41.152-20.022-65.008-16.154-28.977 4.6978-51.342 27.158-56.828 56.38-5.7196 30.463 7.499 60.651 32.541 75.879 23.564 14.329 66.087 15.774 92.419-12.527m-1100.1-112.21c-27.708 16.343-38.627 41.197-35.773 72.421 2.5442 27.83 22.152 51.716 48.874 59.009 30.103 8.2162 56.893 2.3362 78.871-21.556-6.7112-6.5282-13.245-12.884-20.042-19.496-8.8422 8.3884-18.959 14.917-31.699 15.901-12.831 0.9917-24.124-2.7275-32.861-12.396-15.333-16.968-15.478-44.437-0.5957-61.304 15.842-17.954 36.936-17.259 64.833 2.3508 6.3528-7.3132 12.732-14.657 19.065-21.948-18.091-22.616-60.371-28.763-90.673-12.983m-39.08-123.91c-8.1349-9.1473-16.27-18.295-24.952-28.057-1.2561 2.8604-2.6418 4.8617-2.9983 7.0322-1.3689 8.3336-3.3665 16.718-3.3994 25.09-0.12503 31.824 6.1976 62.813 13.473 93.619 1.1309 4.7886 3.5016 5.8883 7.4529 3.0507 9.1835-6.5951 18.294-13.324 27.029-20.493 2.7416-2.2502 4.9843-5.8204 6.0828-9.2289 3.4945-10.843 3.2768-21.882 0.64243-32.997-3.5635-15.035-12.788-26.487-23.33-38.016m1194.2 236.94v-119.22h-30.247v138.31h30.247v-19.092m122.79-157.86c-4.3558-1.8983-8.7117-3.7965-13.129-5.7216-7.9803 10.379-15.721 20.447-24.034 31.258 6.9349 0 12.866 0.041504 18.795-0.02539 1.7896-0.020142 4.0081 0.27649 5.2936-0.62366 8.7344-6.1162 17.272-12.514 26.068-18.964-0.94983-0.58264-1.3502-0.89734-1.8018-1.0944-3.4923-1.5223-6.9944-3.0219-11.192-4.8296z" fill="#fff"/>
<path d="m691.15 1432.1c-2.2732 6.4166-6.747 9.7922-13.356 11.88-56.965 17.993-115.3 25.946-174.87 22.676-116-6.3662-217.88-48.158-304.81-125.18-80.064-70.939-132.48-158.98-158.47-262.7-8.9717-35.797-13.711-72.186-14.867-109.11-2.6026-83.157 12.486-162.92 48.531-237.87 67.921-141.22 176.92-234.68 328.46-277.1 35.875-10.04 72.633-14.954 109.92-15.943 122.23-3.2405 231.13 33.581 326.48 109.76 19.831 15.845 37.364 34.565 55.942 51.976 0.59308 0.55579 1.0301 1.278 1.9417 2.4307-17.962 5.1201-35.762 10.193-53.285 1.4294-17.815-8.9095-34.947-19.196-52.271-29.068-8.766-4.9953-17.295-10.406-26.776-14.922 1.7716 3.0468 3.2281 6.3381 5.3698 9.0977 8.9261 11.502 9.2592 24.479 7.1595 38.03-2.4385 15.737-7.6751 30.558-14.413 46.071-16.861-30.534-36.687-57.834-60.815-81.841-24.128-24.008-50.94-44.273-83.611-58.903 8.7931 27.698 17.192 54.154 25.767 81.165-8.9489 1.9699-17.987 2.9999-26.306 6.0142-12.688 4.5974-20.225-1.0571-26.883-10.666-8.0133-11.565-12.557-24.003-14.278-38.211-2.432-20.072-10.635-37.807-28.427-49.45-19.453-12.729-33.372-9.8374-46.154 9.5063-9.0996 13.771-15.083 29.03-18.744 44.931-7.2716 31.585-21.111 60.22-37.92 87.52-9.853 16.002-20.833 31.314-31.42 46.858-1.5706 2.306-3.5894 4.4079-5.7582 6.1625-1.0751 0.86969-3.3072 1.4694-4.4294 0.94232-12.282-5.7675-25.02-4.3525-37.186-1.0158-15.823 4.3393-31.23 10.24-46.707 15.772-7.4916 2.6776-15.023 5.5026-22.039 9.2031-21.548 11.365-33.911 30.295-41.928 52.577-6.9628 19.353-8.9458 39.487-9.4274 59.862-0.043137 1.8252-0.15883 3.6634-0.43459 5.4659-1.7333 11.33 3.7663 14.668 13.306 14.095 24.912-1.494 49.764-3.9692 74.644-6.0126 7.6316-0.62677 15.269-1.1993 22.912-1.6613 14.821-0.89587 27.098-11.555 30.204-26.105 0.65405-3.064 2.0035-5.9796 3.0326-8.9635 0.58575 0.063355 1.1715 0.12665 1.7573 0.18994 2.346 8.024 4.5456 16.095 7.0988 24.053 1.3091 4.08 2.9344 8.127 4.9603 11.897 8.8994 16.56 18.274 32.869 26.942 49.547 8.1701 15.72 8.7791 31.619-1.5989 46.793-2.011 2.9404-4.8408 5.6025-7.8459 7.5313-11.451 7.349-23.104 14.386-34.749 21.427-1.6287 0.98474-3.6371 1.3416-6.7935 2.4567 0-9.1179-0.042572-17.361 0.009644-25.603 0.085327-13.465 0.18921-26.93 0.37018-40.395 0.10165-7.5613-4.2918-13.274-12.229-13.664-7.923-0.3891-15.954 0.24506-23.869 1.0844-27.313 2.8964-54.607 5.9758-81.885 9.1898-16.046 1.8906-25.249 10.691-27.489 26.833-1.7198 12.393-1.9365 24.926 1.1282 37.217 4.1758 16.747 14.338 24.671 31.558 25.967 22.408 1.6858 44.796 3.6954 67.159 5.9095 12.907 1.2778 23.181 7.3388 30.838 18.092 8.4113 11.814 13.245 24.848 15.259 39.106 0.66107 4.6809-1.2518 5.8917-5.5788 5.5424-19.911-1.6073-39.841-2.9812-59.752-4.6002-11.774-0.95752-23.523-2.2198-35.285-3.3302-0.99286-0.09375-1.9963-0.10584-2.9948-0.10535-14.721 0.008423-22.923 8.3124-21.846 22.873 1.5109 20.421 6.0638 40.13 15.644 58.411 10.522 20.077 26.341 33.897 48.092 40.977 21.814 7.0997 43.493 14.616 65.205 22.027 8.2408 2.8129 12.289 13.76 8.0495 21.367-13.059 23.434-25.558 29.476-56.717 26.858-11.059-0.92908-21.627-3.762-30.961-10.17-0.4643-0.31885-1.1719-0.28308-2.825-0.64282 1.4427 3.5687 2.2511 6.5876 3.777 9.1851 15.758 26.825 31.197 53.851 47.598 80.279 15.798 25.457 32.557 50.32 49.082 75.319 2.0451 3.0939 4.8806 5.9847 7.9763 8.014 24.083 15.786 50.001 27.615 79.31 25.987 25.752-1.4301 50.909-7.2836 74.502-18.762 3.8438-1.8702 9.5703-1.3038 14.011-0.19653 7.6821 1.9156 15.821 3.9192 22.339 8.1095 8.7329 5.6139 18.025 7.1774 27.759 8.252 8.9365 0.9867 17.92 1.6371 26.81 2.9314 12.49 1.8187 24.048-1.8561 36.238-5.1365 0.53742 0.12573 0.86755 0.45654 0.86755 0.45654m-454.9-835.39c-48.783 40.906-85.102 90.621-107.69 151.84 13.968-6.7587 26.536-13.118 39.339-18.963 15.252-6.9631 29.958-14.674 41.139-27.57 6.8654-7.9181 13.811-15.837 19.907-24.339 25.834-36.03 45.281-75.559 62.724-116.15 0.29208-0.67957 0.27551-1.4918 0.50717-2.8553-20.032 11.01-38.235 23.503-55.924 38.028m190.18-30.806c4.3493-15.432 8.6986-30.865 13.237-46.97-1.6206 0.3114-2.3881 0.41492-3.1322 0.60822-21.203 5.5076-38.599 17.613-54.494 32.04-31.128 28.253-55.062 62.139-76.02 98.292-0.46921 0.80933-0.71283 1.7495-1.1143 2.7613 0.78009 0.05835 1.2819 0.18335 1.7581 0.1189 17.134-2.3209 34.274-4.5918 51.393-7.0186 12.156-1.7233 24.483-2.8273 35.72-8.4459 8.5822-4.2911 15.843-9.915 18.544-19.694 4.6821-16.956 9.2431-33.946 14.107-51.693m-265.4 644.54c20.834 24.868 41.093 50.248 62.677 74.448 18.631 20.889 39.472 39.617 63.318 54.659 1.9934 1.2574 4.0562 2.405 6.0867 3.6036-2.5009-10.184-5.6266-19.614-9.2104-28.867-9.9349-25.65-21.734-50.31-37.573-72.989-10.837-15.517-25.632-26.351-40.553-37.285-20.01-14.663-39.934-29.444-62.873-39.361-5.2168-2.2552-10.874-3.4916-16.329-5.1969-0.40757 0.55945-0.81514 1.119-1.2227 1.6785 11.751 16.246 23.502 32.492 35.679 49.309m-27.6-182.42c-12.032-2.8474-24.064-5.6948-36.304-8.5914 0 1.1636-0.084382 1.5183 0.01461 1.811 0.42577 1.2585 0.87497 2.511 1.3699 3.7439 18.27 45.516 47.113 82.315 89.349 107.96 2.8852 1.752 8.4678 4.0204 9.4666 2.948 2.5325-2.7194 3.2225-7.1853 4.5222-10.995 0.24556-0.71985-0.091232-1.6421-0.17442-2.4696-1.5304-15.222-3.7319-30.413-4.431-45.673-0.93614-20.433-13.992-37.009-36.241-42.707-8.8389-2.2642-17.834-3.9183-27.572-6.0276m62.109-193.13c5.9111-13.289 6.7148-27.384 6.0181-41.572-0.31059-6.3248-2.036-12.523-7.4424-16.874-2.8025-2.2554-5.2245-2.7673-8.2458 0.017395-15.791 14.554-32.16 28.508-47.488 43.528-14.301 14.014-26.744 29.728-35.844 47.755-2.4991 4.9507-4.2701 10.269-6.5167 15.765 12.237 1.8903 23.302 0.79065 34.217-1.6409 28.138-6.269 50.615-20.614 65.302-46.979m-91.43 129.47c9.9796 4.4301 19.586 10.788 30.031 12.813 13.715 2.658 28.092 1.9075 42.185 2.5949 0.64107 0.031372 1.3904-0.045166 1.9279-0.35309 3.1001-1.7762 7.3828-12.999 6.5316-16.635-1.6773-7.1655-3.4625-14.437 0.61583-21.357 5.2917-8.9793 2.395-15.779-8.0638-16.384-6.8483-0.39661-13.889 0.75604-20.708 1.9734-18.675 3.3342-37.237 7.307-54.278 16.091-4.5772 2.3595-8.6018 5.7911-13.778 9.3474 5.7717 4.4466 10.354 7.9764 15.536 11.91z" fill="#01C9B5"/>
<path d="m593.24 1133.8c-39.623-2.3187-76.985-11.572-112.31-28.751-24.096-11.719-46.086-26.555-66.448-44.942 20.39-24.439 40.717-48.804 61.4-73.595 3.2164 2.5098 6.3052 4.9182 9.392 7.3291 25.829 20.173 53.714 36.363 86.057 43.593 22.818 5.1008 45.826 6.9816 68.66 0.43237 6.4174-1.8406 12.669-5.0693 18.284-8.7489 17.358-11.376 19.699-42.761-1.1104-55.752-14.583-9.1037-30.597-14.491-46.855-19.271-25.656-7.5433-51.543-14.316-77.112-22.135-18.972-5.8018-36.958-14.057-53.284-25.58-23.083-16.293-37.707-38.167-43.154-65.937-5.7252-29.189-4.965-58.054 6.628-85.826 15.496-37.122 43.857-60.663 80.891-74.53 29.26-10.957 59.673-12.984 90.49-10.765 34.019 2.4496 66.577 10.706 97.279 25.777 17.976 8.8243 34.744 19.53 50.41 32.548-17.977 26.075-35.814 51.946-53.869 78.134-1.3815-0.84259-2.6299-1.534-3.8063-2.3319-24.061-16.32-49.187-30.521-77.608-37.813-21.245-5.4514-42.687-7.608-64.002-0.48169-11.978 4.0048-22.187 10.745-25.36 23.9-3.8752 16.063 0.29535 29.664 14.027 38.291 14.555 9.1437 30.886 13.77 47.12 18.596 26.274 7.8105 52.814 14.793 78.85 23.321 21.092 6.9083 40.73 17.156 57.924 31.576 20.925 17.549 33.367 39.851 37.352 66.814 4.2457 28.732 2.0213 56.849-9.6802 83.675-15.524 35.589-43.361 57.721-79.175 70.654-27.804 10.041-56.684 12.762-86.026 11.97-1.4981-0.040528-2.9964-0.069458-4.9678-0.1477z" fill="#19294A"/>
<path d="m1019.2 1054.8c-35.835-44.103-52.574-94.6-53.01-150.72-0.43805-56.481 15.354-107.76 50.933-152.08 35.715-44.484 82.283-71.578 138.2-81.862 49.884-9.1746 99.125-5.9061 146.94 11.89 30.028 11.176 64.479 34.557 82.948 55.741-22.054 25.424-44.151 50.897-65.329 75.312-15.654-10.943-30.222-22.719-46.238-31.992-33.287-19.271-69.203-24.605-106.36-13.584-41.563 12.33-69.252 40.328-83.204 80.914-15.823 46.029-12.466 91.183 13.383 132.92 23.143 37.37 57.619 56.95 101.89 58.881 41.43 1.8064 76.276-13.594 107.02-40.118 5.0399-4.3487 10.065-8.7141 14.638-12.674 22.536 21.994 45.009 43.926 68.236 66.594-9.4117 8.9592-18.162 17.8-27.448 26.036-32.282 28.632-69.568 47.057-112.4 53.432-69.162 10.294-133.97 0.20959-191.63-42.066-14.308-10.49-26.971-22.753-38.579-36.625z" fill="#19294A"/>
<path d="m822 764v-84.708h108.22v457.57h-108.22v-372.86z" fill="#18294A"/>
<path d="m1846.5 1355.5c-9.8557 0.29065-19.335 0.29065-29.175 0.29065v-138.75c8.7371 0 17.516-0.13489 26.282 0.13806 1.3965 0.043457 3.0542 1.6754 4.0548 2.9833 20.031 26.181 39.983 52.422 59.954 78.649 0.49316 0.64758 1.017 1.2718 2.0872 2.6061v-84.071h30.474v138.52c-8.262 0-16.234 0.14697-24.19-0.13782-1.4054-0.050293-3.0699-1.656-4.0695-2.9611-20.143-26.305-40.203-52.673-60.292-79.02-1.1647-1.5276-2.4249-2.9822-4.4952-5.517 0 2.8596-1.22e-4 4.4395-1.22e-4 6.0193 0 25.16 0.005249 50.32-0.010864 75.481-0.001099 1.8239-0.15735 3.6478-0.61853 5.7623z" fill="#192A4B"/>
<path d="m1237.9 1350.2c-7.7941-11.638-15.542-22.87-22.894-34.355-2.1857-3.4144-4.604-4.5654-8.4968-4.3657-5.9388 0.30469-11.905 0.079712-18.312 0.079712v44.052h-30.442v-138.31c1.2516-0.08667 2.5083-0.24854 3.7649-0.24951 20.655-0.015747 41.315-0.26794 61.962 0.13586 6.7286 0.13135 13.658 1.2202 20.091 3.1937 20.249 6.2124 31.625 24.122 29.837 45.823-1.6531 20.064-8.4269 29.429-29.321 40.396 11.031 16.159 22.05 32.302 33.635 49.273-12.12 0-23.207 0.24634-34.262-0.24084-1.8599-0.082032-3.58-3.3346-5.562-5.4312m-42.337-65.99c9.16-0.040283 18.335 0.2334 27.476-0.20239 10.739-0.51196 18.402-7.6143 19.081-16.906 0.87256-11.941-4.2549-20.12-15.967-21.342-12.432-1.2972-25.104-0.2915-38.001-0.2915v18.993 19.749h7.4106z" fill="#192A4B"/>
<path d="m1140.8 1273.3c3.2758 22.864-1.3242 43.337-16.728 60.317-20.947 23.091-47.552 29.35-76.925 21.804-28.476-7.3153-45.884-26.523-51.818-55.416-8.6022-41.886 23.226-82.707 65.92-85.147 27.851-1.5913 51.042 7.1357 67.866 30.152 6.0819 8.3206 9.6664 17.771 11.685 28.289m-62.762-29.152c-28.647-5.1208-50.302 11.924-51.676 40.674-1.4749 30.861 28.162 53.127 56.472 42.428 16.756-6.3329 27.469-22.853 26.954-41.565-0.5481-19.916-12.044-35.261-31.75-41.537z" fill="#1A2A4B"/>
<path d="m617.25 1352.8c-31.004-13.454-48.303-43.177-44.009-75.114 4.478-33.301 28.902-58.06 62.612-62.419 42.718-5.5243 76.861 20.438 83.704 58.476 6.964 38.712-19.866 77.136-58.744 83.229-14.768 2.3146-29.182 1.403-43.563-4.1727m3.2492-100.87c-8.5846 7.1445-13.234 16.416-15.084 27.323-5.298 31.235 22.889 57.582 52.693 48.998 17.346-4.996 27.159-17.212 29.595-34.635 2.6042-18.62-3.2401-34.626-19.84-44.636-15.75-9.4967-31.73-8.1781-47.364 2.9493z" fill="#192A4B"/>
<path d="m1781.3 1239.7c19.184 24.688 22.603 51.412 8.9718 78.871-14.2 28.605-39.224 40.855-70.525 39.344-30.245-1.46-52.977-15.947-64.106-44.493-11.041-28.318-6.0944-55.048 15.188-77.191 29.181-30.36 82.993-28.831 110.47 3.4696m-15.305 47.698c-0.053345-1.4967-0.050049-2.9979-0.16834-4.4895-2.2411-28.246-28.161-46.27-54.624-37.995-20.189 6.3127-32.402 28.328-27.845 50.196 4.2247 20.276 20.23 34.356 39.453 34.706 24.182 0.44043 41.55-16.272 43.185-42.418z" fill="#192A4B"/>
<path d="m752.02 1355.8h-11.804v-138.63c1.3729-0.068359 2.8234-0.20227 4.274-0.20337 20.321-0.013672 40.644-0.18591 60.961 0.10071 5.928 0.083496 12.005 0.8623 17.726 2.3969 22.775 6.1094 35.234 25.137 32.416 48.776-2.2394 18.785-9.1467 27.929-29.169 38.265 11.011 16.146 21.993 32.249 33.608 49.28-12.257 0-23.482 0.095337-34.699-0.14026-1.1812-0.02478-2.5797-1.8219-3.4407-3.0925-8.4902-12.528-16.976-25.061-25.239-37.739-1.6891-2.5916-3.5019-3.4884-6.4748-3.3962-6.2983 0.19543-12.607 0.059692-19.587 0.059692v44.32h-18.571m18.457-85.349v13.523c12.209 0 23.873 0.47241 35.48-0.13354 11.501-0.6001 18.663-8.6095 18.651-19.406-0.012696-11.028-6.8341-18.482-18.64-19.335-8.4521-0.61084-16.975-0.2489-25.466-0.3064-3.2477-0.021972-6.4956-0.00354-10.025-0.00354 0 8.7157 0 16.69-1.22e-4 25.661z" fill="#192A4B"/>
<path d="m1325.5 1355.8c-9.4103 2.44e-4 -18.37 2.44e-4 -28.166 2.44e-4 3.3787-8.0322 6.4818-15.487 9.6449-22.916 15.942-37.442 31.983-74.843 47.725-112.37 1.611-3.8403 3.5322-4.8036 7.3275-4.6383 6.6531 0.28955 13.333-0.057007 19.989 0.1919 1.4153 0.052856 3.5444 1.1873 4.0543 2.3766 19.372 45.188 38.594 90.44 57.821 135.69 0.11658 0.27441 0.014404 0.6416 0.014404 1.6573-9.901 0-19.788 0.097901-29.667-0.14062-1.0752-0.026001-2.5342-1.8088-3.0834-3.0905-3.4678-8.0912-6.853-16.224-9.9863-24.449-1.0049-2.6375-2.3556-3.3998-5.0981-3.3788-16.996 0.13-33.995 0.15332-50.991-0.015136-3.0742-0.030396-4.2843 1.119-5.3113 3.8057-3.083 8.0651-6.3561 16.064-9.8422 23.962-0.62414 1.4142-2.6188 2.2234-4.4316 3.3123m32.339-71.562c-1.7211 4.2144-3.442 8.4287-5.2915 12.958h36.062c-6.045-14.758-11.88-29.004-18.036-44.033-4.4379 10.742-8.4845 20.537-12.734 31.076z" fill="#1A2B4C"/>
<path d="m969.51 1227.4c16.584 13.36 20.241 30.859 16.164 50.15-4.0369 19.101-17.408 29.834-35.733 34.237-7.5045 1.8025-15.473 1.8394-23.253 2.2775-6.1038 0.34363-12.242 0.068969-18.698 0.068969v41.242h-30.713v-138.11c1.099-0.092041 2.3591-0.28796 3.6193-0.28931 18.498-0.019775 36.997-0.13049 55.494 0.028199 11.906 0.10205 23.025 3.1299 33.12 10.397m-25.322 19.616c-11.944-1.0703-23.888-2.1405-35.995-3.2253v43.004c8.9878 0 17.633 0.34448 26.239-0.08545 11.282-0.56372 18.925-6.8201 21.101-16.431 2.1605-9.5402-1.6369-17.76-11.346-23.262z" fill="#192A4B"/>
<path d="m1570.9 1335.9c-26.084 28.052-68.606 26.608-92.171 12.278-25.042-15.228-38.26-45.416-32.541-75.879 5.4864-29.222 27.851-51.682 56.828-56.38 23.856-3.8677 46.083-0.25049 65.008 16.154 1.3657 1.1838 2.6342 2.4799 4.2374 3.998-6.5558 7.5682-12.934 14.931-19.558 22.578-11.76-10.599-24.733-17.465-40.832-15.381-10.175 1.3171-18.459 6.2706-24.981 14.195-13.843 16.821-12.688 44.13 2.0194 60.174 12.464 13.598 39.811 20.067 64.594-3.736 5.9388 5.7917 11.833 11.639 17.854 17.353 1.8354 1.7417 1.4958 3.0106-0.45935 4.6456z" fill="#1A2B4B"/>
<path d="m471.35 1223.3c29.98-15.594 72.26-9.4467 90.351 13.169-6.3336 7.2913-12.713 14.635-19.065 21.948-27.897-19.61-48.991-20.305-64.833-2.3508-14.883 16.867-14.737 44.336 0.5957 61.304 8.7369 9.6683 20.029 13.388 32.861 12.396 12.74-0.98486 22.857-7.5129 31.699-15.901 6.7971 6.6117 13.331 12.968 20.042 19.496-21.978 23.892-48.768 29.772-78.871 21.556-26.722-7.2935-46.33-31.179-48.874-59.009-2.8544-31.223 8.0651-56.078 36.095-72.607z" fill="#192A4B"/>
<path d="m432.17 1099.8c10.313 11.258 19.538 22.709 23.101 37.745 2.6344 11.115 2.8521 22.154-0.64243 32.997-1.0985 3.4084-3.3412 6.9786-6.0828 9.2289-8.7344 7.1691-17.845 13.898-27.029 20.493-3.9514 2.8376-6.322 1.7379-7.4529-3.0507-7.275-30.805-13.598-61.795-13.473-93.619 0.032868-8.3721 2.0305-16.756 3.3994-25.09 0.35654-2.1705 1.7422-4.1719 2.9983-7.0322 8.6821 9.7627 16.817 18.91 25.18 28.328z" fill="#01C9B5"/>
<path d="m1626.2 1337v18.593h-30.247v-138.31h30.247v119.72z" fill="#18294A"/>
<path d="m1749.3 1178.8c3.8483 1.6572 7.3503 3.1567 10.843 4.6791 0.45154 0.19702 0.85193 0.51172 1.8018 1.0944-8.7965 6.4501-17.334 12.848-26.068 18.964-1.2855 0.90015-3.504 0.60352-5.2936 0.62366-5.9296 0.066894-11.86 0.02539-18.795 0.02539 8.3127-10.812 16.054-20.879 24.034-31.258 4.4174 1.925 8.7732 3.8232 13.478 5.8721z" fill="#1B2C4D"/>
<path d="m690.67 1431.6c0.21027-0.2439 0.57349-0.31116 0.93671-0.37854 0.006409 0.22742 0.012879 0.45496-0.21716 0.78406-0.23645 0.10181-0.56659-0.229-0.71954-0.40552z" fill="#01C9B5"/>
<path d="m236.53 596.52c17.415-14.296 35.618-26.79 55.65-37.8-0.23166 1.3635-0.21509 2.1758-0.50717 2.8553-17.443 40.587-36.889 80.116-62.724 116.15-6.0962 8.502-13.042 16.421-19.907 24.339-11.181 12.896-25.887 20.607-41.139 27.57-12.803 5.845-25.371 12.204-39.339 18.963 22.59-61.224 58.909-110.94 107.97-152.07z" fill="#FDFFFE"/>
<path d="m426.31 566.33c-4.7379 17.361-9.299 34.351-13.981 51.307-2.7002 9.7787-9.9614 15.403-18.544 19.694-11.237 5.6185-23.565 6.7226-35.72 8.4459-17.119 2.4268-34.259 4.6977-51.393 7.0186-0.47617 0.064454-0.978-0.060546-1.7581-0.1189 0.40149-1.0118 0.64511-1.952 1.1143-2.7613 20.958-36.153 44.891-70.039 76.02-98.292 15.895-14.427 33.291-26.533 54.494-32.04 0.74414-0.1933 1.5116-0.29681 3.1322-0.60822-4.5388 16.105-8.8882 31.537-13.364 47.355z" fill="#FDFFFF"/>
<path d="m160.82 1210.2c-11.964-16.532-23.715-32.778-35.466-49.024 0.40757-0.55945 0.81514-1.119 1.2227-1.6785 5.4545 1.7053 11.112 2.9416 16.329 5.1969 22.939 9.9164 42.863 24.698 62.873 39.361 14.921 10.934 29.716 21.768 40.553 37.285 15.839 22.679 27.638 47.339 37.573 72.989 3.5838 9.2528 6.7095 18.683 9.2104 28.867-2.0305-1.1986-4.0933-2.3462-6.0867-3.6036-23.845-15.042-44.686-33.77-63.318-54.659-21.584-24.199-41.843-49.58-62.89-74.733z" fill="#FDFFFE"/>
<path d="m133.84 1028.2c9.3309 2.0205 18.326 3.6747 27.165 5.9388 22.249 5.6989 35.305 22.275 36.241 42.707 0.69914 15.26 2.9006 30.451 4.431 45.673 0.083191 0.82752 0.41998 1.7498 0.17442 2.4696-1.2998 3.8102-1.9897 8.2761-4.5222 10.995-0.99876 1.0724-6.5814-1.196-9.4666-2.948-42.236-25.646-71.079-62.446-89.349-107.96-0.4949-1.2329-0.94411-2.4854-1.3699-3.7439-0.098992-0.29266-0.01461-0.64734-0.01461-1.811 12.24 2.8965 24.272 5.744 36.711 8.6801z" fill="#FDFFFE"/>
<path d="m195.36 835.27c-14.501 26.039-36.978 40.384-65.116 46.653-10.914 2.4316-21.98 3.5312-34.217 1.6409 2.2466-5.4958 4.0176-10.814 6.5167-15.765 9.1003-18.027 21.543-33.741 35.844-47.755 15.328-15.02 31.698-28.974 47.488-43.528 3.0213-2.7847 5.4433-2.2728 8.2458-0.017395 5.4064 4.351 7.1318 10.549 7.4424 16.874 0.69676 14.188-0.10693 28.283-6.2045 41.898z" fill="#FDFFFE"/>
<path d="m103.81 964.21c-4.8822-3.7319-9.4641-7.2617-15.236-11.708 5.1761-3.5563 9.2007-6.9879 13.778-9.3474 17.041-8.7844 35.603-12.757 54.278-16.091 6.8192-1.2174 13.86-2.3701 20.708-1.9734 10.459 0.60571 13.356 7.4049 8.0638 16.384-4.0783 6.9203-2.2931 14.192-0.61583 21.357 0.85123 3.6364-3.4315 14.859-6.5316 16.635-0.53754 0.30792-1.2869 0.38446-1.9279 0.35309-14.093-0.68744-28.47 0.063111-42.185-2.5949-10.446-2.0245-20.052-8.3826-30.332-13.015z" fill="#FCFEFE"/>
<path d="m1195.1 1284.2h-6.9214v-19.749-18.993c12.897 0 25.569-1.0057 38.001 0.2915 11.712 1.2223 16.839 9.4016 15.967 21.342-0.67896 9.2915-8.3423 16.394-19.081 16.906-9.1411 0.43579-18.316 0.16211-27.966 0.20239z" fill="#FDFDFD"/>
<path d="m1078.5 1244.3c19.308 6.1663 30.804 21.511 31.352 41.427 0.51514 18.713-10.198 35.232-26.954 41.565-28.309 10.699-57.947-11.567-56.472-42.428 1.374-28.75 23.029-45.795 52.074-40.564z" fill="#FDFEFE"/>
<path d="m620.77 1251.7c15.359-10.898 31.339-12.216 47.089-2.7196 16.6 10.009 22.444 26.015 19.84 44.636-2.4368 17.423-12.249 29.639-29.595 34.635-29.804 8.5841-57.991-17.763-52.693-48.998 1.85-10.907 6.4998-20.179 15.36-27.553z" fill="#FEFEFE"/>
<path d="m1766 1287.9c-1.608 25.688-18.976 42.4-43.158 41.96-19.222-0.35034-35.228-14.43-39.453-34.706-4.5564-21.868 7.656-43.883 27.845-50.196 26.464-8.2745 52.383 9.749 54.624 37.995 0.11829 1.4916 0.11499 2.9928 0.14087 4.9475z" fill="#FDFEFE"/>
<path d="m770.47 1270c6.1e-5 -8.4724 6.1e-5 -16.447 6.1e-5 -25.163 3.5295 0 6.7774-0.018432 10.025 0.00354 8.4913 0.057496 17.014-0.30444 25.466 0.3064 11.805 0.85303 18.627 8.3069 18.64 19.335 0.012451 10.796-7.15 18.806-18.651 19.406-11.607 0.60596-23.271 0.13354-35.48 0.13354 0-4.6193 0-9.0714 6.1e-5 -14.021z" fill="#FBFCFC"/>
<path d="m1358 1283.9c4.1482-10.167 8.1948-19.962 12.633-30.704 6.156 15.029 11.991 29.275 18.036 44.033h-36.062c1.8495-4.5289 3.5704-8.7433 5.3932-13.329z" fill="#F7F7F9"/>
<path d="m944.55 1247.2c9.3474 5.3682 13.145 13.588 10.984 23.128-2.1765 9.6111-9.8189 15.867-21.101 16.431-8.6064 0.42993-17.252 0.08545-26.239 0.08545v-43.004c12.107 1.0848 24.051 2.155 36.356 3.3595z" fill="#FEFEFE"/>
</svg>
